Coordinates
version=1
nRows=29
nColumns=24
inDegrees=yes

Units are S.I. units (second, meters, Newtons, ...)
Angles are in degrees.

endheader
time	pelvis_tilt	pelvis_list	pelvis_rotation	pelvis_tx	pelvis_ty	pelvis_tz	hip_flexion_r	hip_adduction_r	hip_rotation_r	knee_angle_r	ankle_angle_r	subtalar_angle_r	mtp_angle_r	hip_flexion_l	hip_adduction_l	hip_rotation_l	knee_angle_l	ankle_angle_l	subtalar_angle_l	mtp_angle_l	lumbar_extension	lumbar_bending	lumbar_rotation
      1.02916667	     -2.46695635	     -1.71729326	      0.07617285	     -0.12131843	      1.01890187	      0.32083172	    -10.23187813	      7.76141939	     -0.15852008	     -7.49526955	     11.81285620	     -3.44210250	      2.40326567	     19.98415033	     -1.20598450	     -2.94623712	      7.22351998	      4.39668498	     -0.95057687	     -4.03637178	     -3.26126791	     -0.02833954	      5.96385079
      1.03333333	     -2.44037769	     -1.61350252	      0.04937140	     -0.11593169	      1.01819239	      0.32042251	    -10.37594997	      7.61023357	     -0.26524368	     -7.93750986	     12.07749904	     -3.25831976	      2.44769266	     20.05668389	     -0.97150073	     -2.88504033	      6.76714268	      4.51950989	     -0.71485684	     -3.86920072	     -3.30149882	     -0.13028885	      5.99189730
      1.03750000	     -2.41725601	     -1.52352513	      0.03220269	     -0.11051777	      1.01749383	      0.32005509	    -10.52893888	      7.49183419	     -0.24806689	     -8.34801978	     12.21860028	     -3.33181800	      2.45971657	     20.12147416	     -0.75540803	     -2.70625689	      6.27781852	      4.56576869	     -0.68539611	     -3.82730471	     -3.31991798	     -0.23502791	      6.01069342
      1.04166667	     -2.43249182	     -1.41944151	      0.02239909	     -0.10507758	      1.01675272	      0.31965471	    -10.59920690	      7.34909027	     -0.32889704	     -8.85504089	     12.51051000	     -3.08978943	      2.51161435	     20.26799407	     -0.52403835	     -2.66312579	      5.64814730	      4.71093836	     -0.37099612	     -3.62892775	     -3.27588380	     -0.37156626	      6.05356984
      1.04583333	     -2.37661547	     -1.31051730	      0.01167848	     -0.09962972	      1.01614286	      0.31927540	    -10.73884387	      7.21176466	     -0.35111397	     -9.36290910	     12.60457105	     -3.18772770	      2.52627670	     20.30681706	     -0.29117897	     -2.53276910	      5.04693539	      4.66067055	     -0.33837818	     -3.57077977	     -3.34838596	     -0.47248499	      6.07201642
      1.05000000	     -2.32996434	     -1.18633440	     -0.00042461	     -0.09414507	      1.01555268	      0.31887703	    -10.82721449	      7.04426355	     -0.47987670	     -9.96817108	     12.86207433	     -2.91744127	      2.61974730	     20.39361411	     -0.04791759	     -2.58400471	      4.32083398	      4.70936091	      0.03188858	     -3.19748923	     -3.39178218	     -0.62376229	      6.11281001
      1.05416667	     -2.31439183	     -1.06424321	     -0.00660330	     -0.08863413	      1.01491303	      0.31850163	    -10.86117255	      6.88722826	     -0.58285042	    -10.61580266	     13.06303573	     -2.77849765	      2.91185755	     20.50219254	      0.18893352	     -2.55888623	      3.59347604	      4.63176740	      0.22037507	     -2.00235736	     -3.37850597	     -0.77640767	      6.13174885
      1.05833333	     -2.21969795	     -0.93485790	      0.00532657	     -0.08307876	      1.01442558	      0.31814815	    -11.00910309	      6.74520865	     -0.55444580	    -11.19395752	     13.07615251	     -2.97003513	      2.92707745	     20.48625636	      0.43409087	     -2.37745579	      2.91938329	      4.47330480	      0.18385672	     -1.94672040	     -3.48016530	     -0.92902972	      6.14927437
      1.06250000	     -2.14613199	     -0.80896285	      0.00749886	     -0.07750332	      1.01393777	      0.31781227	    -11.10228707	      6.60468470	     -0.53050519	    -11.83775086	     13.08198417	     -3.11272298	      2.94573080	     20.49567212	      0.66758821	     -2.22571005	      2.21860917	      4.26696567	      0.14669279	     -1.89069259	     -3.55783883	     -1.08227442	      6.16601083
      1.06666667	     -2.02300739	     -0.66508198	      0.00100924	     -0.07187358	      1.01355588	      0.31748093	    -11.21641529	      6.43349394	     -0.58379831	    -12.54990647	     13.08473484	     -3.10862456	      4.09161947	     20.41447109	      0.91604447	     -2.01700867	      1.58523613	      3.82427234	     -0.15395162	      1.34656941	     -3.67501967	     -1.28738170	      6.14113858
      1.07083333	     -1.97603754	     -0.54555220	      0.01114451	     -0.06626726	      1.01307875	      0.31713849	    -11.21560269	      6.30088855	     -0.60446373	    -13.32415564	     13.08067708	     -3.25643862	      4.11084297	     20.45388985	      1.13596852	     -1.86984993	      0.85856999	      3.54797202	     -0.18329087	      1.37186784	     -3.68135412	     -1.44927449	      6.18595871
      1.07500000	     -1.92666394	     -0.41439129	      0.00388720	     -0.06063446	      1.01265265	      0.31678470	    -11.17656090	      6.13981695	     -0.66987481	    -14.18212809	     13.07448987	     -3.21882156	      4.21210601	     20.45616754	      1.36532763	     -1.62786029	      0.19209957	      3.11985674	     -0.50521552	      1.49921009	     -3.70848858	     -1.60205436	      6.25176242
      1.07916667	     -1.84807180	     -0.26386869	      0.00448346	     -0.05495369	      1.01231153	      0.31645406	    -11.15934508	      5.96586639	     -0.71249956	    -15.05356885	     12.96673506	     -3.31118334	      4.30122088	     20.41415384	      1.60860166	     -1.40962676	     -0.45607420	      2.66791091	     -0.75039748	      1.59822341	     -3.76594506	     -1.81997803	      6.25830048
      1.08333333	     -1.78562834	     -0.14831921	      0.00643180	     -0.04930782	      1.01197238	      0.31607495	    -11.07392060	      5.81736970	     -0.81769552	    -16.01782058	     12.86580758	     -3.30522569	      4.51663418	     20.37767381	      1.82177629	     -1.04683560	     -1.07933506	      2.13009301	     -1.33303822	      1.80890395	     -3.80510648	     -1.94259432	      6.27838658
      1.08750000	     -1.69580278	     -0.00464402	      0.00198577	     -0.04361869	      1.01173212	      0.31570315	    -10.99524400	      5.63380344	     -0.92407977	    -17.02184312	     12.69268583	     -3.31395442	      4.80079162	     20.29697059	      2.05622807	     -0.73899197	     -1.68031954	      1.56384961	     -1.83920409	      2.04717960	     -3.87290381	     -2.12448672	      6.28634508
      1.09166667	     -1.66448934	      0.12414581	     -0.00174492	     -0.03793516	      1.01143996	      0.31531737	    -10.81170202	      5.46028814	     -1.04595227	    -18.09953584	     12.46414001	     -3.32123538	      5.10044677	     20.28855854	      2.27063680	     -0.44566652	     -2.30371917	      1.01842657	     -2.31624506	      2.25879043	     -3.86617549	     -2.28739125	      6.29114713
      1.09583333	     -1.57119340	      0.28093888	     -0.01128299	     -0.03222094	      1.01130364	      0.31491895	    -10.66267764	      5.24066643	     -1.22351927	    -19.23322100	     12.19582742	     -3.24903692	      5.49562809	     20.18177691	      2.51225975	     -0.12278468	     -2.87075385	      0.43417492	     -2.88623471	      2.49038510	     -3.93886259	     -2.48236233	      6.29934778
      1.10000000	     -1.53674941	      0.42145718	     -0.02056793	     -0.02651625	      1.01111883	      0.31450159	    -10.40853655	      5.02997809	     -1.41292558	    -20.43519729	     11.85566168	     -3.18301340	      5.92097398	     20.15096921	      2.73194134	      0.16546851	     -3.46905336	     -0.10154542	     -3.39578818	      2.69474480	     -3.93257299	     -2.65623490	      6.29491852
      1.10416667	     -1.44289609	      0.59773418	     -0.04023093	     -0.02076628	      1.01108957	      0.31409577	    -10.19911760	      4.76848620	     -1.61760408	    -21.64896468	     11.28332389	     -3.23744711	     10.06003039	     20.02728739	      2.98142034	      0.43551586	     -4.01793715	     -0.63767400	     -3.92246640	      4.30394202	     -3.99655496	     -2.88254524	      6.27058922
      1.10833333	     -1.36741639	      0.75144917	     -0.06381115	     -0.01506154	      1.01107152	      0.31364470	     -9.90907247	      4.50360316	     -1.89732073	    -22.98153123	     10.86059948	     -2.98572142	     10.14628007	     19.94306178	      3.20102600	      0.61979495	     -4.61343179	     -1.06733821	     -4.28407896	      4.29363401	     -4.05107791	     -3.06191771	      6.28852276
      1.11250000	     -1.29048550	      0.92399167	     -0.09422604	     -0.00933317	      1.01111364	      0.31318489	     -9.58832904	      4.20330669	     -2.19046327	    -24.36118067	     10.33459949	     -2.77378617	     10.34216565	     19.82582430	      3.44099346	      0.86676754	     -5.15674019	     -1.48776261	     -4.80364701	      4.27828674	     -4.09266876	     -3.25105275	      6.27763341
      1.11666667	     -1.22806246	      1.10102306	     -0.12401011	     -0.00361553	      1.01119389	      0.31272404	     -9.21904557	      3.88470558	     -2.49657957	    -25.78342805	      9.72190542	     -2.54833483	     10.58935830	     19.72575143	      3.67925940	      1.06753469	     -5.71051613	     -1.86290769	     -5.21291084	      4.25553825	     -4.13092304	     -3.47633301	      6.26338510
      1.12083333	     -1.14779208	      1.28693184	     -0.16306018	      0.00210291	      1.01134507	      0.31223277	     -8.83171807	      3.53050205	     -2.83754072	    -27.25968638	      9.03999057	     -2.26841900	     10.96725313	     19.58642649	      3.92541291	      1.26392840	     -6.23368175	     -2.17495385	     -5.65728018	      4.21683348	     -4.18379836	     -3.68520957	      6.24423325
      1.12500000	     -1.06669332	      1.48002124	     -0.20537653	      0.00781389	      1.01155659	      0.31174514	     -8.41433701	      3.15104081	     -3.19093689	    -28.77094573	      8.25847599	     -1.98163109	     11.46066267	     19.43731397	      4.17278928	      1.41758149	     -6.74751990	     -2.42798218	     -6.01973152	      4.15811534	     -4.24399210	     -3.91700080	      6.21772528
      1.12916667	     -0.96818133	      1.66716019	     -0.26491693	      0.01354380	      1.01185946	      0.31126797	     -8.00131264	      2.76333218	     -3.51250505	    -30.25936517	      7.16135112	     -1.86164917	     16.69285949	     19.25024790	      4.40582002	      1.52569132	     -7.24147894	     -2.53113256	     -6.30658358	      3.46678053	     -4.30786926	     -4.10525681	      6.18489436
      1.13333333	     -0.87404873	      1.87416822	     -0.32114690	      0.01923812	      1.01218764	      0.31076938	     -7.53727245	      2.32796567	     -3.88041073	    -31.83897041	      6.23317025	     -1.52354117	     16.75587553	     19.06350850	      4.65572008	      1.57439938	     -7.72580463	     -2.61613107	     -6.49624863	      3.45456043	     -4.38368023	     -4.34484381	      6.16032112
      1.13750000	     -0.75542066	      2.06304596	     -0.38613258	      0.02492660	      1.01261049	      0.31029166	     -7.08349924	      1.90267869	     -4.22085333	    -33.40751937	      5.12219939	     -1.28532760	     16.79174361	     18.82761317	      4.87975416	      1.58901141	     -8.17306484	     -2.60476065	     -6.63420557	      3.44583558	     -4.48564554	     -4.56122280	      6.13451225
      1.14166667	     -0.70397953	      2.27490360	     -0.43203613	      0.03056056	      1.01295506	      0.30974360	     -6.51441840	      1.42704453	     -4.59559730	    -35.04349504	      4.05643236	     -0.90004902	     16.98485710	     18.65134495	      5.14120826	      1.67953108	     -8.59277622	     -2.65826657	     -6.86918178	      3.39770014	     -4.52109306	     -4.79258223	      6.06932965
      1.14583333	     -0.58710371	      2.47746532	     -0.50182083	      0.03621061	      1.01347463	      0.30922808	     -6.01099457	      0.94764246	     -4.93290748	    -36.62971140	      2.72592183	     -0.66378311	     20.44239097	     18.36344366	      5.38427249	      1.71866208	     -8.94011675	     -2.60571344	     -7.06478338	      2.48953091	     -4.61954397	     -4.99829704	      6.02411826
